<svg xmlns="http://www.w3.org/2000/svg" viewBox="0 0 1810.03 437.68"><defs><style>.cls-1{fill:#89fda4;}.cls-2{fill:#fdfefd;}</style></defs><g id="Layer_2" data-name="Layer 2"><g id="Layer_1-2" data-name="Layer 1"><path class="cls-1" d="M418.06,255c-26.19,13.26-48.16,32.34-70.27,51.16a304.17,304.17,0,0,0-37.22,37c-2.76,3.33-5.18,7.26-10.44,5.75-5.68-1.64-5.84-6.8-6.27-11.26-2-20.54,2.21-40.18,10.29-58.91,19.72-45.74,54.07-74.76,102-88.08a463,463,0,0,1,112.42-16.46c8.77-.23,12,1,9.83,11.32-12,56.73-29.26,111.2-66.29,157.21-23.07,28.67-52.44,47-89.87,50.59-11.35,1.09-22.5,0-33.11-4.14-4.77-1.86-8.2-1.54-12.63,1.33C200.73,472.35,37.05,405.17,4.69,258.64-20.46,144.73,58.4,28.39,173.6,9.46,271.91-6.7,368.39,46.51,404,136.47c2.15,5.44,3.78,10.65,0,15.95-2.92,4.07-7,6.19-11.94,5.66-6.26-.67-9.7-4.82-11.95-10.47a181,181,0,0,0-42.17-62.92C272.49,20.83,169.08,13.77,98,71.28,37.84,120,13.77,184.78,32.69,260.47,51.46,335.57,102,381.63,178.12,396.39c60.33,11.7,113.91-6.12,159.62-46.4A496,496,0,0,0,412.39,268c2.67-3.69,5.9-7.18,6.75-11.94.32-.61.64-1.2,1-1.8Z"/><path class="cls-1" d="M1699.86,254.39a455.84,455.84,0,0,0-107.36,87.22c-3.22,3.56-5.36,9.07-11.64,7.36-6.74-1.84-6.18-8.25-6.57-13.12-1.81-22.31,3.69-43.35,13.3-63.21,18.59-38.4,47.74-65.21,88.7-78.48s82.9-19.19,125.77-19.81c5.48-.08,9.06.66,7.66,7.58-10.71,53.13-26.48,104.37-58,149.3-20.93,29.81-47.78,51.92-84.41,60-16.47,3.63-32.82,3.89-48.72-2.42-4.23-1.68-7.07-.93-10.76,1.46-127.62,82.58-291.48,14.58-322.87-133.88C1261.19,144,1339.38,29,1452.68,9.66c98.38-16.8,193.47,34.75,231.36,125.43.38.91.78,1.82,1.13,2.75,3.47,9.18,1.29,15.95-6.16,19.16s-14.12.22-17.9-8.9a189.26,189.26,0,0,0-40.73-61.58C1554,19.42,1444.67,13.2,1373.64,75.28c-58.23,50.9-80.3,116.3-58.65,191.39,21.6,74.89,74.3,119,151.1,131.07,55.54,8.74,105.6-8.12,148.24-44.13,29.06-24.55,54.63-52.85,77.31-83.54C1695.1,265.4,1698.78,260.78,1699.86,254.39Z"/><path class="cls-1" d="M1490.3,192c23.8,0,47.6.16,71.39-.12,5.63-.07,7.08,1.25,6.64,7.12-3.19,43.14-5.9,86.31-8.9,129.47-.8,11.51-4,14.38-15.52,14.4q-54,.06-108.07,0c-10.83,0-14.13-3.23-14.88-13.89-3.07-43.48-6-87-9.41-130.42-.55-6.91,2.73-6.6,7.36-6.58C1442.71,192.05,1466.51,192,1490.3,192Z"/><path class="cls-1" d="M208.85,183.84c20.8,0,41.61.27,62.41-.16,6.79-.13,9.1,1.44,8.58,8.65-3,42.45-5.69,84.92-8.43,127.4-.56,8.75-5,13.18-13.88,13.17q-48.54-.06-97.09,0c-8.65,0-13.22-3.92-13.77-13.09-2.6-42.82-5.34-85.63-8.5-128.4-.48-6.53,1.38-7.72,7.28-7.64C166.58,184,187.71,183.85,208.85,183.84ZM253.72,213h.4c0-4.28,0-8.57,0-12.85,0-3.1-1.7-5.08-4.7-5.32a4.85,4.85,0,0,0-5.58,4.41c-.48,2.92-.88,5.87-1.07,8.83q-3,48.36-5.88,96.73c-.25,4.13-.51,8.61,4.92,9.05s6-3.75,6.24-8.06Q250.78,259.39,253.72,213Zm-72.86,42.5h-2c-.78-17.45-1.63-34.89-2.3-52.34-.17-4.34-.9-8.51-6.11-8.2-4.4.27-5.3,4-5.11,8.12q2.45,51.33,4.75,102.68c.18,4.07.37,8.63,6,8.23s4.74-5.21,4.73-9.11Zm23.31-1.76c0,17.52.05,35.05,0,52.57,0,4,.48,7.85,5.24,7.88s5.4-3.8,5.4-7.8q-.06-51.57,0-103.14c0-4.13-.16-8.66-5.78-8.34-4.86.27-4.86,4.49-4.86,8.25Q204.17,228.46,204.17,253.75Z"/><path class="cls-1" d="M1489.31,184.9q-37.62,0-75.26,0c-3.83,0-8.51.85-9-5-.4-4.69-.87-9.61,6.25-9.76,3.78-.08,3.34-3.32,3.82-5.84,2-10.35,4-20.69,5.93-31,3.7-19.89,13.85-28.73,33.8-28.84q35.64-.21,71.3,0c18.54.12,28.6,8.44,32.43,26.64,2.3,11,4.32,22,6.47,33,.62,3.21.74,6.18,5.59,6.45,5.48.32,5.1,5.16,4.79,9.14-.37,4.91-4,5.34-7.88,5.34Q1528.44,184.88,1489.31,184.9Z"/><path class="cls-1" d="M137.91,152.46c-4.48-.06-8.25-1.83-9.19-6.86-1.1-5.9,1.9-9.43,7.52-10.86,12.78-3.24,25.5-6.73,38.38-9.52,5.54-1.2,9.77-2.29,7.56-9.28a1.81,1.81,0,0,1,0-1c3.76-14.87,18.11-10.19,27.49-14.55,6-2.78,11.2.24,12.75,6.92,1.33,5.74,4.31,5,8.68,3.88,12.41-3.33,25-6,37.42-9.33,6-1.61,10.9-.71,12.8,5.48s-1.61,9.94-7.69,11.45q-66.72,16.6-133.44,33.25C139.54,152.22,138.88,152.29,137.91,152.46Z"/><path class="cls-1" d="M209.29,159.74h65.39c6.19,0,12.76.09,12.9,8.47s-6.21,8.91-12.53,8.9q-66.37,0-132.75,0c-6.55,0-12.35-1.11-11.84-9.48.44-7.11,5.78-7.88,11.47-7.87Q175.61,159.79,209.29,159.74Z"/><path class="cls-2" d="M418.06,255l2-.73c-.32.6-.64,1.19-1,1.8Z"/><path class="cls-1" d="M912.15,272.92c.56-1.05,1.26-1.36,2.18-.39L913,273.6Z"/><path class="cls-1" d="M1043.64,126.68c-1.16-1.18-1.77-2.91-2.2-5.33-4.28-24-9.14-47.94-13.56-71.94C1022.3,19.12,1000,.16,969,.08Q895.08-.08,821.2.08C789.73.14,767.64,19.16,762,50.27c-4.29,23.69-9.19,47.26-13.41,71-.45,2.5-1.1,4.26-2.33,5.45Z"/><path class="cls-1" d="M1045,184.24H744.29a19.22,19.22,0,0,1,1.29,6.75q2.24,33.62,4.58,67.21c3.69,52.05,7.26,104.11,11.24,156.13,1.35,17.55,8.41,23.29,26.47,23.3q53.05,0,106.1,0c36.69,0,73.38.09,110.07,0,16-.05,23.28-6.35,24.52-22.22,3.34-42.79,6.27-85.62,9.29-128.45,2.26-31.95,4.3-63.92,6.73-95.87C1044.74,189,1044.27,186.34,1045,184.24ZM986.5,225c-8.63,41.11-20.52,81-50.57,112.15-20.64,21.4-45.52,32.66-76.06,23.56-3.4-1-5.54.17-8.14,1.76-5.06,3.09-10.31,5.9-15.5,8.76s-10.64,3.11-13.69-2.71,0-9.9,5.65-12.6c36.15-17.39,59.79-48.11,83.51-78.7.75-1,.85-2.4,1.26-3.62-.27-.23-.53-.46-.81-.68-26.26,14-47.79,33.84-68.28,55-2.59,2.67-4,7.9-9,6.3-5.23-1.68-4.37-7.24-4.42-11.12-.3-21.61,7.34-40.61,20-57.85,18.09-24.56,44.19-34.6,72.63-40.47a326.64,326.64,0,0,1,56-6.54C983.87,218.09,987.92,218.22,986.5,225Z"/></g></g></svg>